<svg xmlns="http://www.w3.org/2000/svg" viewBox="0 0 1878.93 665.84" width="82" height="35"><defs><style>.cls-1{fill:#737371;}.cls-2{fill:#db2e26;}</style></defs><title>Лого + шрифт</title><path class="cls-1" d="M823.86,359.36h89.68v166.5a16.58,16.58,0,0,0,16.58,16.58h0a16.59,16.59,0,0,0,16.58-16.58V347a17,17,0,0,0-17-17H807.66a17,17,0,0,0-17,17V525.86a16.58,16.58,0,0,0,16.58,16.58h0a16.59,16.59,0,0,0,16.58-16.58Z" transform="translate(-20.07 -184.6)"/><path class="cls-1" d="M997.65,536.92c11.25,6.8,24.23,10.24,38.57,10.24,15.43,0,28.94-3.33,40.44-9.38,6.25-3.3,13.66-10.6,19.61-17.23a14.87,14.87,0,0,0-2.85-22.37h0a14.84,14.84,0,0,0-19.35,2.62c-4,4.53-8.55,9.27-11.79,11.12-6.9,3.93-15.87,5.92-26.65,5.92-13,0-22.91-4.28-30.34-13.1a52.56,52.56,0,0,1-12-27.27h107.62a5.5,5.5,0,0,0,5.48-5h0c.21-2.18.32-5.24.32-9.1a78.6,78.6,0,0,0-9.23-37.92,70.5,70.5,0,0,0-25.6-27,69.26,69.26,0,0,0-36.53-9.95c-14.15,0-27,3.45-38.15,10.25a70.79,70.79,0,0,0-26.24,28.45c-6.18,12-9.32,25.62-9.32,40.62s3.19,28.69,9.49,40.66A71.38,71.38,0,0,0,997.65,536.92Zm-2.37-87a48.54,48.54,0,0,1,12.5-21.46h0c7.16-7.16,16.17-10.64,27.55-10.64,11.85,0,20.86,3,27.54,9.29,5.58,5.22,9.49,12.87,11.67,22.81Z" transform="translate(-20.07 -184.6)"/><path class="cls-1" d="M1260.35,508.62c6.2-11.87,9.34-25.49,9.34-40.49,0-15.21-3.2-29-9.5-40.95a71.56,71.56,0,0,0-26.53-28.43c-11.26-6.8-24.14-10.24-38.28-10.24a62.37,62.37,0,0,0-29.77,7.29,66.45,66.45,0,0,0-12.86,9h0a14.07,14.07,0,0,0-14.07-14.07h-3a14.07,14.07,0,0,0-14.07,14.07V604.42A15.55,15.55,0,0,0,1137.21,620h0a15.54,15.54,0,0,0,15.54-15.54V530.76a63.26,63.26,0,0,0,43.22,16.4c14.15,0,27-3.45,38.15-10.25A71.06,71.06,0,0,0,1260.35,508.62ZM1196,517.84a40,40,0,0,1-22.28-6.22,41.93,41.93,0,0,1-15.3-17.56,63.79,63.79,0,0,1,0-52.45,42.53,42.53,0,0,1,15.3-17.56,40,40,0,0,1,22.28-6.22,38.83,38.83,0,0,1,21.8,6.2A42.9,42.9,0,0,1,1233,441.61c3.74,7.66,5.64,16.58,5.64,26.52a58.21,58.21,0,0,1-5.63,26.05h0a43.23,43.23,0,0,1-15.18,17.45A38.89,38.89,0,0,1,1196,517.84Z" transform="translate(-20.07 -184.6)"/><path class="cls-1" d="M1433.53,510.69h-42.14V406.35a15.55,15.55,0,0,0-15.55-15.55h0a15.55,15.55,0,0,0-15.54,15.55V510.69h-42.14V406.35a15.55,15.55,0,0,0-15.55-15.55h0a15.55,15.55,0,0,0-15.55,15.55v122A11.68,11.68,0,0,0,1298.75,540h154.19a11.68,11.68,0,0,0,11.68-11.68v-122a15.55,15.55,0,0,0-15.55-15.55h0a15.55,15.55,0,0,0-15.54,15.55Z" transform="translate(-20.07 -184.6)"/><path class="cls-1" d="M1514.33,491V406.19a15.55,15.55,0,0,0-15.55-15.55h0a15.55,15.55,0,0,0-15.54,15.55V521a18.87,18.87,0,0,0,18.87,18.88h0a18.87,18.87,0,0,0,15.14-7.6l68.16-91.45v83.9A15.55,15.55,0,0,0,1601,540.25h0a15.55,15.55,0,0,0,15.54-15.55V409.48a18.84,18.84,0,0,0-18.84-18.84h0a18.84,18.84,0,0,0-15.18,7.68Z" transform="translate(-20.07 -184.6)"/><path class="cls-1" d="M1665.86,491V406.19a15.55,15.55,0,0,0-15.55-15.55h0a15.55,15.55,0,0,0-15.54,15.55V521a18.87,18.87,0,0,0,18.87,18.88h0a18.9,18.9,0,0,0,15.14-7.6l68.16-91.45v83.9a15.55,15.55,0,0,0,15.54,15.55h0A15.55,15.55,0,0,0,1768,524.7V409.48a18.84,18.84,0,0,0-18.84-18.84h0a18.84,18.84,0,0,0-15.18,7.68Z" transform="translate(-20.07 -184.6)"/><path class="cls-1" d="M1645.14,763.61v-84.8a15.55,15.55,0,0,0-15.55-15.55h0A15.55,15.55,0,0,0,1614,678.81V793.59a18.88,18.88,0,0,0,18.88,18.88h0a18.9,18.9,0,0,0,15.14-7.6l68.16-91.45v83.9a15.55,15.55,0,0,0,15.54,15.55h0a15.55,15.55,0,0,0,15.55-15.55V682.1a18.85,18.85,0,0,0-18.84-18.84h0a18.84,18.84,0,0,0-15.18,7.68Z" transform="translate(-20.07 -184.6)"/><path class="cls-1" d="M906.24,699.28a50.63,50.63,0,0,0,14.26-13.42c6.47-9,9.75-19.71,9.75-31.86a54.22,54.22,0,0,0-8.7-29.86,59.63,59.63,0,0,0-23.87-21,74.85,74.85,0,0,0-33.76-7.52c-16.2,0-30.61,3.8-42.34,12-9.19,6.42-16.64,16-21.78,23.88a15.49,15.49,0,0,0,5.26,21.78h0a15.55,15.55,0,0,0,20.9-5,69.85,69.85,0,0,1,13.84-15.91c6.24-5.16,14.71-7.09,24.12-7.09,10.37,0,18.53,2.62,25,8C895,638.42,898,645.2,898,654c0,10.27-3,18-9.24,23.51S873.59,686,862.44,686H858.6a14.66,14.66,0,0,0-14.66,14.66h0a14.66,14.66,0,0,0,14.66,14.66h5c12.26,0,21.7,3.24,28.88,9.9S903,740.55,903,752c0,11.21-3.43,19.6-10.48,25.64-7.31,6.26-16.37,9.31-27.72,9.31-11,0-20.1-2.66-27.27-8.69-6.33-5.32-11.88-13.25-15.86-19.89a15,15,0,0,0-19.47-5.61h0a15,15,0,0,0-6,21.53c10.86,17.18,33.2,43.26,68.55,42.86,12.83-.14,24.8-2.78,35.57-8.27a65.72,65.72,0,0,0,25.91-23.2A61.31,61.31,0,0,0,935.86,752c0-14.51-3.68-26.92-10.94-36.91A52.46,52.46,0,0,0,906.24,699.28Z" transform="translate(-20.07 -184.6)"/><path class="cls-1" d="M1061.27,675a63.18,63.18,0,0,0-43.22-16.41c-14.15,0-27,3.45-38.15,10.25a71,71,0,0,0-26.22,28.29c-6.2,11.86-9.34,25.49-9.34,40.49,0,15.21,3.19,29,9.49,40.95A71.38,71.38,0,0,0,980.37,807c11.25,6.8,24.13,10.24,38.28,10.24a62.33,62.33,0,0,0,29.76-7.29,66.45,66.45,0,0,0,12.86-9h0a13.25,13.25,0,0,0,13.25,13.25h4.59a13.25,13.25,0,0,0,13.25-13.25V675a13.54,13.54,0,0,0-13.54-13.54h-4A13.54,13.54,0,0,0,1061.27,675Zm-43.22,12.91a40,40,0,0,1,22.28,6.22,42.53,42.53,0,0,1,15.3,17.56,63.79,63.79,0,0,1,0,52.45,42,42,0,0,1-15.3,17.57,40.07,40.07,0,0,1-22.28,6.21,38.83,38.83,0,0,1-21.8-6.2,42.9,42.9,0,0,1-15.18-17.58c-3.74-7.66-5.64-16.59-5.64-26.52a58.27,58.27,0,0,1,5.63-26.05,43,43,0,0,1,15.19-17.46A38.83,38.83,0,0,1,1018.05,687.86Z" transform="translate(-20.07 -184.6)"/><path class="cls-1" d="M1273.77,814.15h0a15.74,15.74,0,0,0,15.54-15.92V677.32a15.73,15.73,0,0,0-15.54-15.91h0a15.73,15.73,0,0,0-15.55,15.91V798.23A15.74,15.74,0,0,0,1273.77,814.15Z" transform="translate(-20.07 -184.6)"/><path class="cls-1" d="M1114.86,810.67h0c6.72,5.34,17.61,2.82,24.33-5.63l92.43-116.29c6.72-8.45,6.72-19.64,0-25h0c-6.72-5.34-17.62-2.82-24.34,5.63l-92.43,116.29C1108.13,794.14,1108.14,805.33,1114.86,810.67Z" transform="translate(-20.07 -184.6)"/><path class="cls-1" d="M1231.62,810.67h0c-6.72,5.34-17.62,2.82-24.34-5.63l-92.43-116.29c-6.72-8.45-6.71-19.64,0-25h0c6.72-5.34,17.61-2.82,24.33,5.63l92.43,116.29C1238.34,794.14,1238.34,805.33,1231.62,810.67Z" transform="translate(-20.07 -184.6)"/><path class="cls-1" d="M1420.48,661.41h-68.34a17.25,17.25,0,0,0-17.25,17.25v21.21c0,73-13.21,83.88-21.07,83.88H1312a11,11,0,0,0-11,11v40.69a15,15,0,0,0,15,15h0a15,15,0,0,0,15-15V813.67h93.81v21.81a15,15,0,0,0,15,15h0a15,15,0,0,0,15-15V794.79a11,11,0,0,0-11-11h-5.8V678.66A17.25,17.25,0,0,0,1420.48,661.41Zm-13.84,29.92v92.42H1352.1c8.53-17,12.7-42.71,12.7-78.15V691.33Z" transform="translate(-20.07 -184.6)"/><path class="cls-1" d="M1567.36,720.05H1497V677a15.47,15.47,0,0,0-15.39-15.54h0A15.47,15.47,0,0,0,1466.21,677V798.6a15.47,15.47,0,0,0,15.39,15.55h0A15.47,15.47,0,0,0,1497,798.6V750.06h70.37V798.6a15.47,15.47,0,0,0,15.39,15.55h0a15.47,15.47,0,0,0,15.39-15.55V677a15.47,15.47,0,0,0-15.39-15.54h0A15.47,15.47,0,0,0,1567.36,677Z" transform="translate(-20.07 -184.6)"/><path class="cls-1" d="M1287.55,615.62a8.24,8.24,0,0,0-6-2.53h-18a8.64,8.64,0,0,0-8.53,8.53v18a8.64,8.64,0,0,0,8.53,8.53h18a8.64,8.64,0,0,0,8.53-8.53v-18A8.24,8.24,0,0,0,1287.55,615.62Z" transform="translate(-20.07 -184.6)"/><path class="cls-2" d="M1690.17,385.84h0c5.76,5.06,15,4.05,20.68-2.24l29.6-32.89c5.67-6.3,5.59-15.5-.16-20.55h0c-5.76-5.06-15-4.05-20.69,2.24L1690,365.29C1684.34,371.59,1684.41,380.79,1690.17,385.84Z" transform="translate(-20.07 -184.6)"/><path class="cls-1" d="M1796.83,763.93v-84.8a15.55,15.55,0,0,0-15.55-15.54h0a15.55,15.55,0,0,0-15.55,15.54V793.92a18.87,18.87,0,0,0,18.88,18.87h0a18.89,18.89,0,0,0,15.14-7.59l68.16-91.45v83.89a15.55,15.55,0,0,0,15.54,15.55h0A15.55,15.55,0,0,0,1899,797.64V682.43a18.84,18.84,0,0,0-18.84-18.84h0a18.86,18.86,0,0,0-15.18,7.67Z" transform="translate(-20.07 -184.6)"/><path class="cls-2" d="M1821.14,658.79h0c5.76,5.05,15,4.05,20.68-2.25l29.6-32.89c5.66-6.29,5.59-15.49-.17-20.55h0c-5.75-5.05-15-4.05-20.68,2.25L1821,638.24C1815.31,644.53,1815.38,653.73,1821.14,658.79Z" transform="translate(-20.07 -184.6)"/><path class="cls-1" d="M281.29,187.1H51.83a31.75,31.75,0,0,0-31.76,31.75V448.32a31.75,31.75,0,0,0,31.76,31.75H62.41V240.65a11.11,11.11,0,0,1,11.11-11.11H313.05V218.85A31.75,31.75,0,0,0,281.29,187.1Z" transform="translate(-20.07 -184.6)"/><path class="cls-1" d="M620.81,520.9H610.23V760.32a11.1,11.1,0,0,1-11.11,11.11H359.59v10.69a31.75,31.75,0,0,0,31.76,31.75H620.81a31.75,31.75,0,0,0,31.76-31.75V552.65A31.75,31.75,0,0,0,620.81,520.9Z" transform="translate(-20.07 -184.6)"/><rect class="cls-1" x="339.52" width="292.98" height="292.98" rx="31.76" ry="31.76"/><rect class="cls-1" y="342.33" width="292.98" height="292.98" rx="31.76" ry="31.76"/><path class="cls-2" d="M254.3,243.79l-40.5,34v178a24.39,24.39,0,0,0,24.39,24.39h.73a24.39,24.39,0,0,0,24.39-24.39V248.13A5.5,5.5,0,0,0,254.3,243.79Z" transform="translate(-20.07 -184.6)"/><path class="cls-2" d="M154.06,428.5V325.84a4,4,0,0,0-6.5-3l-59.17,50a5.66,5.66,0,0,0,0,8.64l59.17,50A4,4,0,0,0,154.06,428.5Z" transform="translate(-20.07 -184.6)"/><path class="cls-2" d="M564.46,651.23l-65.09,75.49a5.89,5.89,0,0,0,4.49,9.73l66.57-.24a4.39,4.39,0,0,0,4.37-4.39V655.07A5.88,5.88,0,0,0,564.46,651.23Z" transform="translate(-20.07 -184.6)"/><path class="cls-2" d="M385.53,713.8a25.27,25.27,0,0,0,46.91,10.08L559.05,576c.84-1,3.21-3.68,5.83-6.91,2-2.42,4-5.14,5.75-7.7a25.3,25.3,0,0,0-16.77-35.65,49.11,49.11,0,0,0-5.44-.73q-3-.24-6.37-.2h-98.6v.07H406.74A25.39,25.39,0,0,0,385.92,547l-.17.18v5.33l.17.18A25.38,25.38,0,0,0,407,574.84h38.27v.08h49L393.81,692.23A25.18,25.18,0,0,0,385.53,713.8Z" transform="translate(-20.07 -184.6)"/></svg>